<svg width="512" height="512" viewBox="0 0 512 512" fill="none" xmlns="http://www.w3.org/2000/svg">
  <rect width="512" height="512" rx="128" fill="#0052FF"/>
  <defs>
    <linearGradient id="g" x1="0%" y1="0%" x2="100%" y2="100%">
      <stop offset="0%" stop-color="#ffffff"/>
      <stop offset="100%" stop-color="#e0e7ff"/>
    </linearGradient>
  </defs>
  <path d="M256 96 L400 176 L400 336 L256 416 L112 336 L112 176 Z" stroke="url(#g)" stroke-width="16" fill="none"/>
  <path d="M256 140 L360 200 L360 312 L256 372 L152 312 L152 200 Z" stroke="url(#g)" stroke-width="10" fill="none" opacity="0.5"/>
  <path d="M176 216 L136 256 L176 296" stroke="url(#g)" stroke-width="20" stroke-linecap="round" stroke-linejoin="round" fill="none"/>
  <path d="M336 216 L376 256 L336 296" stroke="url(#g)" stroke-width="20" stroke-linecap="round" stroke-linejoin="round" fill="none"/>
  <path d="M280 192 L232 320" stroke="url(#g)" stroke-width="16" stroke-linecap="round" fill="none"/>
  <circle cx="152" cy="184" r="16" fill="url(#g)"/>
  <circle cx="360" cy="184" r="16" fill="url(#g)"/>
  <circle cx="360" cy="328" r="16" fill="url(#g)"/>
  <circle cx="152" cy="328" r="16" fill="url(#g)"/>
</svg>
